<svg width="28" height="14" viewBox="0 0 28 14" fill="none" xmlns="http://www.w3.org/2000/svg">
<g clip-path="url(#clip0_638_408)">
<path d="M27.9166 7.65113L26.7756 6.41328L26.5403 5.54791L25.8849 3.13943C25.8491 3.0022 25.7181 2.90698 25.5661 2.90698H19.7212V0.308062C19.7212 0.137227 19.5753 0 19.3936 0H5.10608C4.92435 0 4.77838 0.140028 4.77838 0.310862V2.61292H3.4825C3.30078 2.61292 3.1548 2.75015 3.1548 2.92098C3.1548 3.09182 3.30078 3.22905 3.4825 3.22905H7.30461C7.48633 3.22905 7.6323 3.09182 7.6323 2.92098C7.6323 2.75015 7.48633 2.61292 7.30461 2.61292H5.43377V0.616123H19.0659V11.5719H12.795C12.792 11.5495 12.786 11.5271 12.7831 11.5047C12.7771 11.4767 12.7711 11.4487 12.7652 11.4207C12.7563 11.3815 12.7443 11.3451 12.7324 11.3087C12.7235 11.2807 12.7175 11.2555 12.7086 11.2274C12.6967 11.1882 12.6788 11.1518 12.6639 11.1154C12.652 11.0902 12.643 11.065 12.6341 11.0426C12.6162 11.0034 12.5924 10.9614 12.5716 10.9222C12.5596 10.9026 12.5507 10.883 12.5418 10.8662C12.509 10.8102 12.4732 10.7542 12.4345 10.7009C12.4286 10.6925 12.4226 10.6841 12.4166 10.6785C12.3839 10.6337 12.3481 10.5889 12.3094 10.5469C12.2945 10.5273 12.2766 10.5133 12.2588 10.4937C12.229 10.4629 12.1992 10.4321 12.1694 10.4013C12.1485 10.3817 12.1277 10.3649 12.1068 10.3453C12.077 10.3201 12.0472 10.2921 12.0174 10.2669C11.9966 10.2472 11.9728 10.2332 11.9489 10.2164C11.9162 10.194 11.8864 10.1716 11.8536 10.1492C11.8298 10.1324 11.803 10.1184 11.7791 10.1016C11.7464 10.082 11.7136 10.0624 11.6778 10.0428C11.651 10.0288 11.6242 10.0148 11.5974 10.0036C11.5617 9.9868 11.5259 9.96999 11.4902 9.95319C11.4633 9.94199 11.4365 9.93079 11.4067 9.91958C11.368 9.90558 11.3323 9.89158 11.2906 9.88038C11.2608 9.87197 11.234 9.86077 11.2042 9.85517C11.1625 9.84397 11.1208 9.83557 11.0791 9.82437C11.0522 9.81876 11.0254 9.81036 10.9956 9.80476C10.948 9.79636 10.9003 9.79076 10.8526 9.78516C10.8288 9.78516 10.805 9.77676 10.7811 9.77396C10.7097 9.76835 10.6352 9.76275 10.5607 9.76275C10.4862 9.76275 10.4117 9.76555 10.3402 9.77396C10.3164 9.77396 10.2926 9.77956 10.2688 9.78516C10.2211 9.79076 10.1734 9.79636 10.1258 9.80476C10.0989 9.81036 10.0721 9.81596 10.0423 9.82437C10.0006 9.83557 9.95893 9.84397 9.91723 9.85517C9.88744 9.86357 9.86062 9.87197 9.83381 9.88038C9.79508 9.89158 9.75636 9.90558 9.71763 9.91958C9.69082 9.93079 9.66401 9.94199 9.63422 9.95319C9.59847 9.96999 9.55974 9.984 9.52697 10.0036C9.50016 10.0176 9.47335 10.0316 9.44654 10.0428C9.41377 10.0624 9.37802 10.082 9.34525 10.1016C9.32142 10.1156 9.29461 10.1324 9.27077 10.1492C9.238 10.1716 9.20523 10.194 9.17544 10.2164C9.15161 10.2332 9.13076 10.2501 9.10693 10.2669C9.07416 10.2921 9.04437 10.3173 9.01458 10.3453C8.99372 10.3649 8.97287 10.3817 8.955 10.3985C8.92223 10.4293 8.89244 10.4601 8.86265 10.4937C8.84775 10.5105 8.82988 10.5273 8.81498 10.5441C8.77625 10.5889 8.7405 10.6337 8.70774 10.6813C8.70178 10.6897 8.69582 10.6953 8.69284 10.7009C8.65411 10.7542 8.61836 10.8102 8.58559 10.869C8.57368 10.8886 8.56474 10.9054 8.5558 10.925C8.53495 10.9642 8.5141 11.0062 8.49324 11.0454C8.48133 11.0678 8.47239 11.093 8.46345 11.1154C8.44856 11.1546 8.43068 11.191 8.41877 11.2302C8.40983 11.2555 8.40089 11.2835 8.39494 11.3115C8.38302 11.3507 8.37408 11.3871 8.36217 11.4263C8.35621 11.4543 8.35025 11.4823 8.34429 11.5103C8.34131 11.5327 8.33238 11.5523 8.33238 11.5775H5.42781V5.69074H5.96106C6.14278 5.69074 6.28875 5.55351 6.28875 5.38268C6.28875 5.21184 6.14278 5.07462 5.96106 5.07462H2.94627C2.76455 5.07462 2.61858 5.21184 2.61858 5.38268C2.61858 5.55351 2.76455 5.69074 2.94627 5.69074H4.77242V11.8856C4.77242 12.0564 4.9184 12.1936 5.10012 12.1936H8.33535C8.49622 13.2158 9.43164 14.0028 10.5607 14.0028C11.6898 14.0028 12.6282 13.2158 12.786 12.1936H21.2972C21.458 13.2158 22.3934 14.0028 23.5225 14.0028C24.6516 14.0028 25.59 13.2158 25.7478 12.1936H27.6604C27.8421 12.1936 27.9881 12.0564 27.9881 11.8856V7.86117C27.9881 7.78836 27.9583 7.71554 27.9077 7.65953H27.9047L27.9166 7.65113ZM26.0547 6.25085H21.4521V4.58172H25.5989L26.0517 6.25085H26.0547ZM10.5667 13.3783C9.68784 13.3783 8.96989 12.7033 8.96989 11.8772C8.96989 11.051 9.68784 10.3761 10.5667 10.3761C11.4455 10.3761 12.1634 11.051 12.1634 11.8772C12.1634 12.7033 11.4455 13.3783 10.5667 13.3783ZM23.5314 13.3783C22.6526 13.3783 21.9347 12.7033 21.9347 11.8772C21.9347 11.051 22.6526 10.3761 23.5314 10.3761C24.4103 10.3761 25.1282 11.051 25.1282 11.8772C25.1282 12.7033 24.4103 13.3783 23.5314 13.3783ZM27.3416 11.5691H25.7598C25.7568 11.5467 25.7508 11.5243 25.7478 11.5019C25.7419 11.4739 25.7359 11.4459 25.73 11.4179C25.721 11.3787 25.7091 11.3423 25.6972 11.3059C25.6883 11.2779 25.6823 11.2527 25.6734 11.2246C25.6615 11.1854 25.6436 11.149 25.6287 11.1126C25.6168 11.0874 25.6078 11.0622 25.5989 11.0398C25.581 11.0006 25.5572 10.9586 25.5363 10.9194C25.5244 10.8998 25.5155 10.8802 25.5065 10.8634C25.4738 10.8074 25.438 10.7514 25.3993 10.6981C25.3933 10.6897 25.3874 10.6813 25.3814 10.6757C25.3487 10.6309 25.3129 10.5861 25.2742 10.5441C25.2593 10.5245 25.2414 10.5105 25.2235 10.4909C25.1937 10.4601 25.164 10.4293 25.1342 10.3985C25.1133 10.3789 25.0925 10.3621 25.0716 10.3425C25.0418 10.3173 25.012 10.2893 24.9822 10.2641C24.9614 10.2444 24.9375 10.2304 24.9137 10.2136C24.8809 10.1912 24.8512 10.1688 24.8184 10.1464C24.7946 10.1296 24.7677 10.1156 24.7439 10.0988C24.7111 10.0792 24.6784 10.0596 24.6426 10.04C24.6158 10.026 24.589 10.012 24.5622 10.0008C24.5264 9.984 24.4907 9.96719 24.4549 9.95039C24.4281 9.93919 24.4013 9.92799 24.3715 9.91678C24.3328 9.90278 24.2971 9.88878 24.2553 9.87758C24.2256 9.86917 24.1987 9.85797 24.169 9.85237C24.1272 9.84117 24.0855 9.83277 24.0438 9.82156C24.017 9.81596 23.9902 9.80756 23.9604 9.80196C23.9128 9.79356 23.8651 9.78796 23.8174 9.78236C23.7936 9.78236 23.7698 9.77396 23.7459 9.77115C23.6744 9.76555 23.6 9.75995 23.5255 9.75995C23.451 9.75995 23.3765 9.76275 23.305 9.77115C23.2812 9.77115 23.2574 9.77676 23.2335 9.78236C23.1859 9.78796 23.1382 9.79356 23.0905 9.80196C23.0637 9.80756 23.0369 9.81316 23.0071 9.82156C22.9654 9.83277 22.9237 9.84117 22.882 9.85237C22.8522 9.86077 22.8254 9.86917 22.7986 9.87758C22.7599 9.88878 22.7211 9.90278 22.6824 9.91678C22.6556 9.92799 22.6288 9.93919 22.599 9.95039C22.5633 9.96719 22.5245 9.9812 22.4918 10.0008C22.4649 10.0148 22.4381 10.0288 22.4113 10.04C22.3786 10.0596 22.3428 10.0792 22.31 10.0988C22.2862 10.1128 22.2594 10.1296 22.2356 10.1464C22.2028 10.1688 22.17 10.1912 22.1402 10.2136C22.1164 10.2304 22.0955 10.2473 22.0717 10.2641C22.0389 10.2893 22.0091 10.3145 21.9794 10.3425C21.9585 10.3621 21.9377 10.3789 21.9198 10.3957C21.887 10.4265 21.8572 10.4573 21.8274 10.4909C21.8125 10.5077 21.7947 10.5245 21.7798 10.5413C21.741 10.5861 21.7053 10.6309 21.6725 10.6785C21.6666 10.6869 21.6606 10.6925 21.6576 10.6981C21.6189 10.7514 21.5831 10.8074 21.5504 10.8662C21.5385 10.8858 21.5295 10.9026 21.5206 10.9222C21.4997 10.9614 21.4789 11.0034 21.458 11.0426C21.4461 11.065 21.4372 11.0902 21.4282 11.1126C21.4133 11.1518 21.3955 11.1882 21.3836 11.2274C21.3746 11.2527 21.3657 11.2807 21.3597 11.3087C21.3478 11.3479 21.3389 11.3843 21.327 11.4235C21.321 11.4515 21.315 11.4795 21.3091 11.5075C21.3061 11.5299 21.2972 11.5495 21.2972 11.5747H19.7153V3.52871H25.3069L25.4261 3.97119H21.1184C20.9367 3.97119 20.7907 4.10842 20.7907 4.27926V6.56451C20.7907 6.73535 20.9367 6.87258 21.1184 6.87258H26.3198L27.3357 7.9732V11.5747L27.3416 11.5691ZM2.63347 4.45849C2.45175 4.45849 2.30578 4.32126 2.30578 4.15043C2.30578 3.9796 2.45175 3.84237 2.63347 3.84237H5.56187C5.74359 3.84237 5.88956 3.9796 5.88956 4.15043C5.88956 4.32126 5.74359 4.45849 5.56187 4.45849H2.63347ZM1.89467 4.15043C1.89467 4.32126 1.7487 4.45849 1.56698 4.45849H0.327694C0.145973 4.45849 0 4.32126 0 4.15043C0 3.9796 0.145973 3.84237 0.327694 3.84237H1.56698C1.7487 3.84237 1.89467 3.9796 1.89467 4.15043ZM6.97095 5.68794C6.78923 5.68794 6.64326 5.55071 6.64326 5.37988C6.64326 5.20904 6.78923 5.07182 6.97095 5.07182H8.03149C8.21321 5.07182 8.35919 5.20904 8.35919 5.37988C8.35919 5.55071 8.21321 5.68794 8.03149 5.68794H6.97095Z" fill="black"/>
</g>
<defs>
<clipPath id="clip0_638_408">
<rect width="28" height="14" fill="white"/>
</clipPath>
</defs>
</svg>
