<svg width="18" height="16" viewBox="0 0 18 16" fill="none" xmlns="http://www.w3.org/2000/svg">
<path d="M15.4606 0H2.39004C1.04564 0 0 1.10891 0 2.53465V10.0594C0 11.4852 1.04564 12.5941 2.39004 12.5941H4.10788V15.2079C4.10788 15.5248 4.33195 15.8416 4.55602 15.9208C4.63071 15.9208 4.78008 16 4.85477 16C5.07884 16 5.22822 15.9208 5.45228 15.7624L8.51452 12.5149H15.61C16.9544 12.5149 18 11.4059 18 9.9802V2.45545C17.8506 1.18812 16.805 0 15.4606 0ZM4.25726 7.84158C3.51037 7.84158 2.83817 7.12871 2.83817 6.33663C2.83817 5.54455 3.51037 4.83168 4.25726 4.83168C5.00415 4.83168 5.67635 5.54455 5.67635 6.33663C5.67635 7.12871 5.00415 7.84158 4.25726 7.84158ZM9.03734 7.84158C8.29046 7.84158 7.61826 7.12871 7.61826 6.33663C7.61826 5.54455 8.29046 4.83168 9.03734 4.83168C9.78423 4.83168 10.4564 5.54455 10.4564 6.33663C10.4564 7.12871 9.78423 7.84158 9.03734 7.84158ZM13.7427 7.84158C12.9959 7.84158 12.3237 7.12871 12.3237 6.33663C12.3237 5.54455 12.9959 4.83168 13.7427 4.83168C14.4896 4.83168 15.1618 5.54455 15.1618 6.33663C15.1618 7.12871 14.4896 7.84158 13.7427 7.84158Z" fill="black"/>
</svg>
