<svg width="22" height="22" viewBox="0 0 22 22" fill="none" xmlns="http://www.w3.org/2000/svg">
<g clip-path="url(#clip0_638_403)">
<path d="M20.6497 8.096C20.0942 7.62575 19.811 6.95475 19.8743 6.25625C19.8853 6.14075 19.8908 6.02525 19.8908 5.907C19.8908 4.8895 19.4975 3.93525 18.7798 3.22025C17.9575 2.40075 16.8245 2.00475 15.6695 2.13125C15.037 2.20275 14.377 1.9085 13.904 1.3475C13.8353 1.265 13.7638 1.188 13.6895 1.11375C12.969 0.396 12.0148 0 11 0C9.878 0 8.822 0.49225 8.096 1.35025C7.64775 1.881 6.9245 2.1725 6.16 2.1175C5.06825 2.046 3.99575 2.4475 3.2175 3.22025C2.44475 3.99575 2.04325 5.06825 2.11475 6.16C2.16425 6.92175 1.87825 7.645 1.3475 8.096C0.49225 8.822 0 9.878 0 11C0 12.122 0.49225 13.1808 1.35025 13.904C1.881 14.3523 2.16975 15.0755 2.1175 15.84C2.046 16.9345 2.4475 18.0043 3.22025 18.7825C3.99575 19.5553 5.0655 19.9567 6.16 19.8853C6.92175 19.8358 7.645 20.1217 8.096 20.6525C8.822 21.5077 9.878 22 11 22C12.122 22 13.178 21.5077 13.904 20.6497C14.3743 20.0942 15.0425 19.8083 15.7438 19.8743C16.8685 19.9788 17.9823 19.5772 18.7798 18.777C19.5993 17.9548 19.9953 16.8218 19.8687 15.6668C19.7973 15.0343 20.0915 14.3743 20.6525 13.8985C20.7323 13.8298 20.812 13.7583 20.8862 13.684C21.604 12.969 22 12.0148 22 11C22 9.878 21.5077 8.822 20.6497 8.096ZM20.4545 13.255C20.3913 13.3183 20.3253 13.3788 20.2565 13.4365C19.5415 14.0415 19.1675 14.9023 19.261 15.7382C19.3682 16.7063 19.0355 17.6578 18.348 18.348C17.677 19.019 16.753 19.3545 15.7988 19.2665C14.8995 19.1868 14.0388 19.547 13.4365 20.2565C12.8288 20.977 11.9405 21.3895 11 21.3895C10.0595 21.3895 9.17125 20.977 8.5635 20.2565C8.03275 19.6268 7.2105 19.2665 6.33325 19.2665C6.26175 19.2665 6.193 19.2693 6.1215 19.272C5.203 19.3353 4.30375 18.9942 3.652 18.3453C3.003 17.6935 2.66475 16.7943 2.72525 15.8758C2.7885 14.9187 2.42 14.0085 1.74075 13.4338C1.02025 12.826 0.60775 11.9378 0.60775 10.9973C0.60775 10.0568 1.02025 9.1685 1.74075 8.56075C2.42 7.986 2.7885 7.073 2.72525 6.11875C2.66475 5.20025 3.003 4.301 3.652 3.64925C4.30375 3.00025 5.20575 2.65925 6.1215 2.7225C7.0785 2.78575 7.98875 2.41725 8.5635 1.738C9.17125 1.0175 10.0595 0.605 11 0.605C11.8525 0.605 12.6528 0.93775 13.255 1.54C13.3183 1.60325 13.3788 1.66925 13.4365 1.73525C14.0415 2.453 14.9023 2.82425 15.7382 2.73075C16.709 2.6235 17.6605 2.95625 18.348 3.64375C18.9503 4.246 19.2803 5.04625 19.2803 5.89875C19.2803 5.99775 19.2747 6.094 19.2665 6.193C19.184 7.09225 19.547 7.953 20.2565 8.55525C20.977 9.163 21.3895 10.0513 21.3895 10.9918C21.3895 11.8525 21.0567 12.6528 20.4545 13.255Z" fill="black"/>
<path d="M10.9983 4.27899C7.29134 4.27899 4.27734 7.29574 4.27734 11C4.27734 14.7042 7.29409 17.721 10.9983 17.721C14.7026 17.721 17.7193 14.707 17.7193 11C17.7193 7.29299 14.7053 4.27899 10.9983 4.27899ZM10.9983 17.1105C7.62959 17.1105 4.88784 14.3687 4.88784 11C4.88784 7.63124 7.62959 4.88949 10.9983 4.88949C14.3671 4.88949 17.1088 7.63124 17.1088 11C17.1088 14.3687 14.3671 17.1105 10.9983 17.1105Z" fill="black"/>
<path d="M13.5378 9.09424L10.2515 12.3777L8.46951 10.494C8.35401 10.373 8.15876 10.3675 8.03776 10.483C7.91401 10.5985 7.90851 10.7937 8.02676 10.9147L10.026 13.0267C10.0838 13.0872 10.1608 13.1202 10.2433 13.123H10.2488C10.3285 13.123 10.4083 13.09 10.466 13.0322L13.9695 9.52599C14.0878 9.40774 14.0878 9.21249 13.9695 9.09424C13.8513 8.97599 13.6588 8.97324 13.5378 9.09424Z" fill="black"/>
</g>
<defs>
<clipPath id="clip0_638_403">
<rect width="22" height="22" fill="white"/>
</clipPath>
</defs>
</svg>
