<svg width="37" height="40" viewBox="0 0 37 40" fill="none" xmlns="http://www.w3.org/2000/svg">
<g clip-path="url(#clip0_2033_7307)">
<path d="M2.02762 37.9633C3.31987 39.2776 5.11801 39.9995 7.09819 39.9995C7.1183 39.9995 7.13947 39.9995 7.15958 39.9995C12.2936 39.961 17.5156 39.9674 22.566 39.9738C25.0542 39.9771 27.6271 39.9803 30.1576 39.9781C31.7398 39.9771 33.2046 39.4755 34.3963 38.5279C35.6028 37.5686 36.4135 36.2414 36.7395 34.6886C36.985 33.5207 36.9861 32.3101 36.9882 31.139V30.923C37.0041 23.9448 37.0041 16.5804 36.9892 7.04513C36.9861 5.15646 36.295 3.38864 35.0419 2.06785C33.7824 0.739582 32.0922 0.0070011 30.2814 0.00486218C21.6939 -0.00797136 13.2515 0.0070011 6.85583 0.0219736C6.17002 0.023043 5.54347 0.103253 4.99524 0.259394C1.98317 1.11389 0.0326306 3.83781 0.0241638 7.19913C0.0167553 10.1915 0.0178136 13.2341 0.0199303 16.1751C0.0199303 17.2788 0.0209887 18.3814 0.0209887 19.4851H0.00723011V26.3222C0.00723011 26.9767 0.00934682 27.6301 0.0114635 28.2846C0.0167553 29.7231 0.0209887 31.2107 0.000879996 32.6705C-0.0287539 34.7239 0.690926 36.6029 2.02762 37.9633ZM1.86041 16.2136C1.85829 13.1935 1.85723 10.0696 1.86464 6.99807C1.86993 4.65167 3.52202 2.51382 5.70646 2.02614C6.09064 1.94059 6.52456 1.90209 7.11301 1.90102C9.7155 1.89888 12.3296 1.89888 14.9184 1.89888C20.2514 1.89888 25.4786 1.90209 30.274 1.9053C32.8056 1.90636 34.954 3.94155 35.063 6.44088C35.1488 8.39158 35.1424 10.3861 35.1361 12.3154C35.1339 12.9133 35.1329 13.51 35.1329 14.1068V14.3164C35.1403 20.3396 35.1477 26.5681 35.1287 32.694C35.1213 35.05 34.1349 36.7141 32.1981 37.6381C31.6488 37.9002 30.9704 38.052 30.3364 38.0552C23.5524 38.0841 16.2635 38.0895 6.70131 38.0745C4.00251 38.0702 1.8784 35.8457 1.8657 33.0106C1.85194 29.9701 1.85511 26.8772 1.85829 23.887C1.85935 22.5844 1.86146 21.2818 1.86146 19.9792C1.86146 18.7247 1.86146 17.4702 1.86041 16.2158V16.2136Z" fill="#1D1D1B"/>
<path d="M17.7374 12.8786C16.9976 12.8786 16.2567 12.8968 15.518 12.8636C15.3645 12.8572 15.2195 12.6647 15.0703 12.5588C15.1973 12.4166 15.3275 12.146 15.4503 12.1492C17.622 12.2134 19.8244 11.8273 21.957 12.5032C25.5385 13.639 27.8541 17.1276 27.6806 21.0964C27.6573 21.6279 27.6023 22.1626 27.5007 22.6834C27.4678 22.8513 27.235 22.9797 27.0943 23.1262C26.9895 22.9369 26.7767 22.7337 26.7979 22.5604C26.9609 21.2632 27.0149 19.9777 26.7111 18.689C25.9068 15.2742 22.9593 12.8979 19.4805 12.8786C18.8994 12.8754 18.3184 12.8786 17.7363 12.8786H17.7374Z" fill="black"/>
<path d="M18.5094 28.1545C17.0648 28.194 15.6106 28.2283 14.2401 27.6871C11.3232 26.5353 9.62141 24.3237 9.09223 21.25C8.90913 20.1848 9.05519 19.0619 9.05519 17.9657C9.05519 17.6812 9.11128 17.3796 9.46477 17.4149C9.8553 17.4534 9.82249 17.7818 9.77698 18.0769C9.48064 19.9966 9.71983 21.8382 10.6448 23.5515C11.9784 26.022 14.0707 27.2946 16.8447 27.3909C18.0935 27.4337 19.3445 27.3973 20.5944 27.3952C20.8653 27.3952 21.1807 27.3759 21.1786 27.7513C21.1765 28.1277 20.8802 28.1641 20.5701 28.1598C19.8832 28.1481 19.1963 28.1566 18.5105 28.1566L18.5094 28.1545Z" fill="black"/>
<path d="M20.8844 30.5976C22.3481 29.4853 23.7028 28.4554 25.1125 27.3828C23.6954 26.3529 22.3343 25.3647 20.8823 24.3102C20.8823 24.9016 20.9119 25.3914 20.8664 25.8748C20.8495 26.0492 20.6717 26.3219 20.5309 26.3475C20.2081 26.4053 20.1509 26.1315 20.1541 25.8534C20.1594 25.231 20.1425 24.6086 20.1573 23.9862C20.1711 23.3894 20.5521 23.1744 21.0294 23.5135C22.6106 24.6385 24.1822 25.7786 25.7496 26.924C26.0925 27.1742 26.1063 27.5517 25.7602 27.818C24.179 29.034 22.5905 30.2414 20.9892 31.4296C20.5627 31.7462 20.1742 31.5376 20.1584 31.0147C20.1393 30.3933 20.1266 29.7687 20.1689 29.1495C20.1806 28.987 20.406 28.8405 20.5341 28.6865C20.6516 28.8362 20.8516 28.9773 20.8696 29.1378C20.9161 29.5741 20.8854 30.019 20.8854 30.5976H20.8844Z" fill="black"/>
<path d="M15.4933 16.0066C15.4933 15.3917 15.4679 14.8815 15.5081 14.3757C15.5208 14.211 15.7029 14.0602 15.8077 13.903C15.9452 14.0538 16.1918 14.1981 16.2024 14.3575C16.2511 15.0665 16.2522 15.7809 16.2289 16.4911C16.2141 16.9231 15.7971 17.1113 15.415 16.8418C13.8561 15.7435 12.3066 14.6291 10.7678 13.503C10.4228 13.2506 10.4217 12.8699 10.7614 12.6004C12.3109 11.3683 13.8687 10.1459 15.4362 8.93638C15.8352 8.62838 16.213 8.81981 16.2321 9.32888C16.2564 9.96841 16.2606 10.6112 16.2183 11.2496C16.2088 11.4004 15.9812 11.5373 15.8542 11.6806C15.7346 11.5341 15.5282 11.3972 15.5103 11.2389C15.4626 10.8037 15.4933 10.3598 15.4933 9.7973C14.1026 10.901 12.7861 11.9458 11.407 13.0399C12.7712 14.0292 14.0889 14.9842 15.4944 16.0034L15.4933 16.0066Z" fill="black"/>
</g>
<defs>
<clipPath id="clip0_2033_7307">
<rect width="37" height="40" fill="white"/>
</clipPath>
</defs>
</svg>
