<svg width="76" height="25" viewBox="0 0 76 25" fill="none" xmlns="http://www.w3.org/2000/svg">
<path d="M0 0.000540837C5.37461 -0.000324428 10.7492 0.000108112 16.1238 0.000108112C16.1234 4.00542 16.1243 8.01031 16.1234 12.0152C17.9132 8.01031 19.7034 4.00542 21.4937 0.000540837C22.3912 0.000108204 23.2891 0.000108204 24.1866 0.000540837C24.1871 8.01463 24.1871 16.0292 24.1866 24.0432C23.2891 24.0437 22.3916 24.0437 21.4941 24.0432C19.7039 20.0388 17.9141 16.0339 16.1238 12.0295C16.1234 16.0343 16.1243 20.0388 16.1234 24.0437C10.7488 24.0432 5.37461 24.0441 0 24.0432C0 16.0292 0 8.01463 0 0.000540837Z" fill="white"/>
<path d="M29.0626 0.000324475C30.5786 -0.000108158 32.0951 -0.000108158 33.6111 0.000324475C33.6111 8.05595 33.6115 16.112 33.6107 24.1681C32.0946 24.1681 30.5786 24.1681 29.063 24.1681C29.0622 16.112 29.0626 8.05595 29.0626 0.000324475Z" fill="white"/>
<path d="M38.7324 0.00103517C40.2845 -0.000695362 41.8362 0.000170141 43.388 0.000602774C41.5385 3.83503 39.6874 7.66902 37.8392 11.5043C40.147 15.7255 42.4565 19.9463 44.7634 24.1683C43.1943 24.1679 41.6251 24.1688 40.056 24.1679C37.9589 20.0791 35.8623 15.9907 33.7656 11.9019C35.4209 7.93509 37.0775 3.96828 38.7324 0.00103517Z" fill="white"/>
<path d="M47.7969 0.000432725C51.9906 -0.00043254 56.1848 0.000432633 60.3785 0C60.3794 0.965204 60.3785 1.93041 60.379 2.89561C57.7013 2.89648 55.0235 2.89561 52.3458 2.89604C52.3454 5.30711 52.3454 7.71774 52.3458 10.1288C54.795 10.1292 57.2438 10.1288 59.693 10.1292C59.693 11.0944 59.6934 12.0596 59.693 13.0248C57.2438 13.0253 54.7946 13.0248 52.3454 13.0253C52.3454 15.7742 52.3449 18.5232 52.3458 21.2721C55.165 21.2721 57.9837 21.2717 60.8029 21.2721C60.8034 22.2373 60.8029 23.2025 60.8029 24.1677C56.4677 24.1682 52.1325 24.1682 47.7969 24.1677C47.7969 16.1117 47.7969 8.05606 47.7969 0.000432725Z" fill="white"/>
<path d="M64.7266 0.000324475C68.3919 -0.000108158 72.0572 -0.000108158 75.7221 0.000324475C75.7226 0.965096 75.7226 1.9303 75.7221 2.8955C73.5724 2.89637 71.4226 2.8955 69.2729 2.89594C69.2724 5.29445 69.272 7.69254 69.2729 10.0911C71.282 10.0915 73.2916 10.0906 75.3008 10.0915C75.3008 11.0567 75.3012 12.0215 75.3008 12.9867C73.2912 12.9871 71.282 12.9867 69.2729 12.9871C69.272 16.7138 69.2729 20.4409 69.272 24.1681C67.7569 24.1676 66.2417 24.1685 64.7266 24.1676C64.7266 16.1116 64.7266 8.05595 64.7266 0.000324475Z" fill="white"/>
</svg>
